<?xml version="1.0" standalone="no"?>
<!DOCTYPE svg PUBLIC "-//W3C//DTD SVG 20010904//EN"
 "http://www.w3.org/TR/2001/REC-SVG-20010904/DTD/svg10.dtd">
<svg version="1.0" xmlns="http://www.w3.org/2000/svg"
 width="1376.000000pt" height="1459.000000pt" viewBox="0 0 1376.000000 1459.000000"
 preserveAspectRatio="xMidYMid meet">

<g transform="translate(0.000000,1459.000000) scale(0.100000,-0.100000)"
fill="#000000" stroke="none">
<path d="M5695 12820 c-11 -4 -117 -106 -236 -227 -223 -224 -241 -248 -224
-305 10 -33 1481 -1505 1530 -1530 54 -29 144 -29 205 -1 34 16 221 197 788
765 l742 743 0 55 0 54 -212 214 c-117 117 -225 220 -240 228 -34 18 -72 18
-106 0 -15 -8 -247 -236 -517 -506 -364 -364 -498 -493 -522 -499 -69 -20 -72
-17 -588 499 -269 270 -502 498 -517 506 -30 15 -72 17 -103 4z"/>
<path d="M4338 11472 c-226 -226 -228 -228 -228 -270 0 -24 6 -55 14 -70 8
-15 235 -247 505 -517 517 -516 514 -512 496 -582 -4 -19 -173 -195 -511 -533
l-504 -506 0 -53 0 -54 213 -214 c116 -118 225 -222 241 -230 19 -10 43 -13
69 -10 38 5 87 52 779 744 406 406 748 753 760 771 13 21 22 57 26 98 10 125
49 79 -747 878 -394 395 -734 731 -755 747 -30 22 -50 29 -85 29 l-46 0 -227
-228z"/>
<path d="M9055 11681 c-16 -10 -357 -347 -757 -747 -528 -530 -731 -740 -742
-768 -20 -49 -21 -146 -1 -194 22 -52 1498 -1529 1537 -1537 64 -15 85 0 287
199 106 105 206 209 222 230 31 42 38 90 18 129 -6 12 -236 247 -510 522
l-499 500 0 43 c0 24 5 53 11 65 6 12 236 248 511 524 l501 501 -5 52 -5 53
-225 223 -224 224 -44 0 c-27 0 -57 -8 -75 -19z"/>
<path d="M5469 8103 c-228 -226 -247 -252 -234 -316 6 -26 153 -178 738 -765
415 -415 752 -745 777 -760 38 -23 56 -27 120 -27 53 0 85 6 110 19 19 10 369
352 778 760 l742 741 0 60 0 59 -223 223 -223 223 -59 0 -59 0 -506 -504
c-278 -277 -516 -507 -528 -511 -13 -4 -40 -4 -60 0 -32 6 -104 73 -542 511
l-506 504 -53 0 -54 0 -218 -217z"/>
<path d="M7760 5079 c-128 -13 -273 -53 -388 -109 -129 -62 -176 -95 -275
-189 -172 -165 -278 -383 -322 -666 -24 -152 -16 -465 15 -610 101 -467 423
-774 893 -850 58 -9 161 -15 277 -15 271 0 423 21 610 84 l95 32 3 54 c5 77
-16 221 -45 315 -25 81 -98 241 -114 251 -5 3 -58 -11 -118 -30 -146 -47 -232
-60 -371 -53 -171 8 -274 49 -356 140 -94 104 -129 222 -128 432 0 226 37 339
142 437 101 95 204 128 395 128 146 0 291 -26 422 -76 15 -6 77 128 109 238
25 88 46 229 46 314 l0 52 -123 41 c-159 53 -238 69 -400 81 -149 11 -244 11
-367 -1z"/>
<path d="M2680 5065 c-8 -2 -55 -9 -103 -15 l-88 -12 4 -802 c3 -766 4 -805
24 -891 73 -321 256 -537 534 -629 161 -54 426 -82 684 -73 231 9 439 43 713
118 l112 31 0 1123 0 1123 -82 13 c-52 9 -163 14 -298 14 -135 0 -246 -5 -297
-14 l-83 -13 0 -860 c0 -808 -1 -859 -17 -866 -10 -4 -72 -7 -138 -7 -224 0
-324 65 -371 245 -16 58 -18 142 -21 776 l-4 711 -67 13 c-61 11 -467 24 -502
15z"/>
<path d="M8905 5048 c-66 -5 -123 -12 -126 -16 -6 -6 845 -2298 864 -2329 14
-23 151 -37 357 -37 187 0 349 14 377 32 8 7 879 2289 885 2322 4 20 -56 27
-322 36 -231 7 -486 -7 -506 -29 -6 -7 -52 -158 -102 -337 -91 -323 -235 -839
-275 -978 -12 -43 -23 -68 -28 -60 -3 7 -95 317 -204 688 -109 371 -202 680
-209 687 -27 29 -444 41 -711 21z"/>
<path d="M5176 5022 c-30 -49 -40 -435 -14 -562 l13 -65 228 -3 227 -2 0 -418
c0 -342 -3 -429 -15 -477 -33 -128 -109 -187 -248 -194 -69 -3 -194 8 -298 25
l-35 6 -21 -78 c-45 -165 -56 -247 -57 -392 -1 -114 2 -145 13 -152 24 -14
170 -48 266 -61 146 -19 398 -7 520 25 380 99 590 351 634 758 7 60 11 386 11
848 l0 750 -609 0 c-336 0 -612 -3 -615 -8z"/>
<path d="M10975 3061 c-45 -11 -69 -26 -103 -65 -86 -98 -57 -250 57 -308 68
-35 113 -35 179 -2 72 36 106 93 106 178 -1 83 -40 149 -109 184 -30 15 -96
21 -130 13z m113 -81 c61 -37 80 -130 39 -191 -31 -46 -62 -61 -120 -56 -68 6
-108 46 -114 114 -12 117 99 191 195 133z"/>
<path d="M10950 2865 c0 -95 0 -95 25 -95 21 0 25 5 25 30 0 17 4 30 8 30 4 0
16 -13 25 -30 13 -21 26 -30 43 -30 26 0 25 8 -4 42 -13 15 -12 19 2 33 20 21
21 79 0 99 -10 11 -34 16 -70 16 l-54 0 0 -95z m93 43 c7 -21 -4 -38 -24 -38
-14 0 -19 7 -19 25 0 18 5 25 19 25 11 0 21 -6 24 -12z"/>
<path d="M6752 2133 c-35 -51 -35 -53 -4 -53 23 0 35 8 56 40 l26 40 -29 0
c-21 0 -35 -8 -49 -27z"/>
<path d="M7174 2131 c-66 -30 -98 -81 -102 -161 -7 -111 41 -177 144 -201 60
-14 119 0 164 37 37 31 37 39 5 60 -24 16 -27 16 -48 -4 -78 -71 -205 -1 -194
107 10 92 112 140 188 88 34 -23 37 -24 59 -7 30 23 15 51 -43 79 -54 26 -119
27 -173 2z"/>
<path d="M2520 1991 c0 -146 1 -150 26 -180 53 -64 155 -64 208 0 25 30 26 34
26 180 0 142 -1 149 -20 149 -19 0 -20 -7 -20 -131 0 -165 -15 -198 -92 -199
-28 0 -42 7 -62 31 -25 30 -26 35 -26 165 0 127 -1 134 -20 134 -19 0 -20 -7
-20 -149z"/>
<path d="M3200 2120 c0 -13 7 -20 20 -20 13 0 20 7 20 20 0 13 -7 20 -20 20
-13 0 -20 -7 -20 -20z"/>
<path d="M4420 2120 c0 -15 7 -20 25 -20 18 0 25 5 25 20 0 15 -7 20 -25 20
-18 0 -25 -5 -25 -20z"/>
<path d="M4780 2075 c0 -36 -2 -65 -5 -65 -2 0 -19 9 -37 20 -63 38 -153 13
-185 -50 -17 -34 -16 -115 1 -149 34 -65 135 -88 195 -43 30 22 31 22 31 2 0
-13 7 -20 20 -20 19 0 20 7 20 185 0 178 -1 185 -20 185 -18 0 -20 -7 -20 -65z
m-33 -97 c75 -71 -5 -204 -99 -165 -47 20 -63 44 -63 92 0 91 97 134 162 73z"/>
<path d="M5490 2075 c0 -36 -2 -65 -5 -65 -2 0 -19 9 -37 20 -63 38 -149 15
-183 -49 -19 -38 -19 -113 -1 -150 34 -65 135 -88 195 -43 30 22 31 22 31 2 0
-13 7 -20 20 -20 19 0 20 7 20 185 0 178 -1 185 -20 185 -18 0 -20 -7 -20 -65z
m-33 -97 c51 -48 36 -129 -29 -161 -32 -16 -40 -16 -70 -4 -47 20 -63 44 -63
92 0 91 97 134 162 73z"/>
<path d="M5880 2000 c0 -136 -1 -140 -24 -155 -24 -16 -49 -12 -77 12 -13 11
-19 9 -40 -13 l-24 -26 28 -23 c56 -49 147 -40 191 18 19 25 21 44 24 178 l3
149 -40 0 -41 0 0 -140z"/>
<path d="M8100 2110 c0 -28 3 -30 35 -30 32 0 35 2 35 30 0 28 -3 30 -35 30
-32 0 -35 -2 -35 -30z"/>
<path d="M8250 1955 l0 -185 35 0 35 0 0 185 0 185 -35 0 -35 0 0 -185z"/>
<path d="M8400 2110 c0 -28 3 -30 35 -30 32 0 35 2 35 30 0 28 -3 30 -35 30
-32 0 -35 -2 -35 -30z"/>
<path d="M9220 2080 l0 -61 -30 16 c-62 32 -143 7 -175 -54 -19 -38 -19 -113
-1 -150 22 -41 64 -65 117 -65 33 -1 53 5 68 18 19 17 21 17 21 3 0 -13 9 -17
35 -17 l35 0 0 185 0 185 -35 0 -35 0 0 -60z m-10 -130 c44 -82 -63 -165 -119
-94 -36 46 -26 99 22 119 36 15 82 3 97 -25z"/>
<path d="M9690 1955 l0 -185 35 0 35 0 0 185 0 185 -35 0 -35 0 0 -185z"/>
<path d="M9955 2123 c4 -10 33 -85 65 -168 32 -82 61 -158 65 -168 6 -14 17
-17 48 -15 l41 3 68 175 c37 96 68 178 68 183 0 4 -17 7 -38 7 l-39 0 -49
-134 c-27 -74 -51 -132 -54 -130 -3 3 -26 63 -51 132 l-46 127 -43 3 c-38 3
-42 1 -35 -15z"/>
<path d="M10680 1955 l0 -185 35 0 35 0 0 185 0 185 -35 0 -35 0 0 -185z"/>
<path d="M10830 1955 l0 -185 35 0 35 0 0 185 0 185 -35 0 -35 0 0 -185z"/>
<path d="M2943 2031 c-27 -17 -33 -18 -33 -6 0 8 -9 15 -20 15 -19 0 -20 -7
-20 -135 0 -128 1 -135 20 -135 18 0 20 7 20 79 0 44 4 91 10 105 14 37 53 59
90 51 45 -10 60 -47 60 -150 0 -78 2 -85 20 -85 19 0 20 7 20 109 0 100 -2
112 -23 136 -31 37 -99 44 -144 16z"/>
<path d="M3683 2030 c-18 -10 -39 -33 -48 -49 -20 -40 -19 -116 2 -152 19 -31
85 -69 121 -69 30 0 84 23 100 43 21 24 -4 31 -44 12 -48 -23 -96 -13 -128 26
-14 17 -26 35 -26 40 0 5 51 9 115 9 l115 0 0 25 c0 105 -118 170 -207 115z
m131 -42 c14 -13 26 -32 28 -43 3 -18 -3 -20 -76 -23 -104 -4 -111 -1 -91 38
27 52 96 66 139 28z"/>
<path d="M4031 2024 c-30 -25 -31 -25 -31 -5 0 14 -6 21 -20 21 -19 0 -20 -7
-20 -135 0 -125 1 -135 19 -135 16 0 19 10 23 90 4 77 8 93 27 114 13 14 36
28 52 31 20 5 29 13 29 26 0 28 -42 24 -79 -7z"/>
<path d="M4196 2029 c-51 -40 -30 -98 48 -133 60 -26 71 -44 50 -75 -20 -28
-49 -27 -80 4 -24 24 -54 25 -54 1 0 -19 41 -54 72 -61 34 -9 95 11 108 35 16
29 12 75 -7 93 -10 8 -39 25 -64 35 -50 22 -61 37 -47 65 11 21 51 22 68 2 16
-19 50 -20 50 -1 0 23 -50 56 -85 56 -18 0 -44 -9 -59 -21z"/>
<path d="M4961 2032 c-89 -48 -93 -184 -8 -246 39 -29 106 -28 146 2 30 22 31
22 31 2 0 -15 7 -20 25 -20 l25 0 0 135 0 135 -25 0 c-19 0 -25 -5 -26 -22 0
-13 -3 -17 -6 -10 -8 19 -59 42 -95 42 -18 0 -49 -8 -67 -18z m119 -37 c58
-30 69 -104 23 -154 -62 -67 -163 -29 -163 61 0 49 13 73 48 92 35 19 56 20
92 1z"/>
<path d="M6089 2030 c-50 -26 -73 -74 -67 -139 4 -39 12 -59 34 -82 71 -75
202 -55 240 37 55 131 -80 251 -207 184z m132 -79 c38 -48 2 -121 -61 -121
-53 0 -89 79 -56 122 16 22 55 37 78 30 10 -2 28 -16 39 -31z"/>
<path d="M6386 2029 c-20 -16 -26 -29 -26 -59 0 -43 26 -70 86 -90 28 -9 34
-17 32 -33 -4 -29 -35 -33 -61 -9 -17 15 -28 18 -44 11 -29 -11 -29 -30 0 -57
51 -48 146 -36 174 23 23 48 3 83 -64 114 -35 17 -53 31 -53 43 0 22 48 26 56
4 5 -14 50 -10 60 5 3 5 -8 23 -25 39 -37 37 -94 41 -135 9z"/>
<path d="M6673 2030 c-58 -35 -82 -99 -63 -169 25 -94 159 -131 233 -64 16 15
16 18 1 34 -14 15 -18 16 -42 3 -15 -8 -35 -14 -45 -14 -28 0 -77 29 -77 45 0
12 19 15 100 15 l100 0 0 30 c0 109 -115 176 -207 120z m115 -56 c43 -30 28
-44 -48 -44 -67 0 -70 1 -60 20 21 40 70 51 108 24z"/>
<path d="M7519 2027 c-102 -67 -81 -227 33 -258 50 -13 97 -5 133 22 24 20 25
23 10 39 -15 16 -19 17 -43 4 -15 -8 -35 -14 -45 -14 -26 0 -74 26 -80 45 -6
13 8 15 98 15 l105 0 0 33 c0 107 -122 174 -211 114z m121 -57 c33 -33 24 -40
-50 -40 -67 0 -70 1 -60 20 23 42 78 52 110 20z"/>
<path d="M7851 2033 c-18 -9 -42 -31 -52 -47 -24 -40 -25 -118 -2 -157 19 -31
85 -69 121 -69 32 0 84 24 106 49 19 21 19 22 0 36 -24 18 -34 18 -58 0 -48
-36 -116 1 -116 63 0 65 74 98 122 55 16 -14 20 -14 43 1 32 21 22 46 -29 70
-43 20 -92 20 -135 -1z"/>
<path d="M8599 2030 c-50 -26 -73 -74 -67 -139 4 -39 12 -59 34 -82 71 -75
202 -55 240 37 55 131 -80 251 -207 184z m132 -79 c38 -48 2 -121 -61 -121
-53 0 -89 79 -56 122 16 22 55 37 78 30 10 -2 28 -16 39 -31z"/>
<path d="M9423 2030 c-58 -35 -82 -99 -63 -169 25 -94 159 -131 233 -64 16 15
16 18 1 34 -14 15 -18 16 -42 3 -15 -8 -35 -14 -45 -14 -28 0 -77 29 -77 45 0
12 19 15 100 15 l100 0 0 33 c0 105 -118 172 -207 117z m115 -56 c43 -30 28
-44 -48 -44 -67 0 -70 1 -60 20 21 40 70 51 108 24z"/>
<path d="M10394 2040 c-32 -13 -71 -65 -78 -104 -21 -113 79 -203 180 -161 25
10 40 12 42 5 2 -5 19 -10 38 -10 l34 0 0 135 0 135 -34 0 c-19 0 -36 -5 -38
-12 -3 -8 -11 -7 -28 5 -26 18 -81 21 -116 7z m121 -81 c28 -27 26 -86 -4
-110 -44 -36 -102 -20 -120 32 -13 39 2 77 39 96 29 15 57 9 85 -18z"/>
<path d="M11033 2034 c-35 -18 -73 -83 -73 -127 0 -35 17 -77 43 -105 43 -46
140 -51 193 -10 23 19 24 22 9 38 -15 16 -19 17 -47 3 -39 -20 -94 -8 -116 25
l-14 22 107 0 108 0 -6 45 c-8 57 -29 89 -72 109 -42 20 -91 20 -132 0z m125
-71 c21 -29 14 -33 -58 -33 -38 0 -70 4 -70 9 0 5 12 19 27 31 32 25 79 21
101 -7z"/>
<path d="M3200 1905 c0 -128 1 -135 20 -135 19 0 20 7 20 135 0 128 -1 135
-20 135 -19 0 -20 -7 -20 -135z"/>
<path d="M3314 2024 c3 -8 29 -69 57 -135 44 -101 55 -119 74 -119 19 0 30 18
76 126 30 70 56 131 57 135 2 5 -7 9 -21 9 -22 0 -29 -12 -67 -102 -23 -57
-43 -104 -45 -106 -1 -1 -22 45 -45 103 -38 93 -46 105 -68 105 -18 0 -23 -4
-18 -16z"/>
<path d="M4420 1905 l0 -135 25 0 25 0 0 135 0 135 -25 0 -25 0 0 -135z"/>
<path d="M8100 1905 l0 -135 35 0 35 0 0 135 0 135 -35 0 -35 0 0 -135z"/>
<path d="M8400 1905 l0 -135 35 0 35 0 0 135 0 135 -35 0 -35 0 0 -135z"/>
</g>
</svg>
